<?xml version="1.0" encoding="UTF-8"?>
<svg xmlns="http://www.w3.org/2000/svg" width="1200" height="1200" viewBox="0 0 1200 1200" id="avatar">
  <defs>
    <linearGradient id="g1" x1="0" x2="1" y1="0" y2="1">
      <stop offset="0" stop-color="#06b6d4"/>
      <stop offset="1" stop-color="#7c3aed"/>
    </linearGradient>
    <radialGradient id="faceGrad" cx="40%" cy="30%" r="70%">
      <stop offset="0%" stop-color="#ffd9b3"/>
      <stop offset="60%" stop-color="#f0b884"/>
      <stop offset="100%" stop-color="#d89a68"/>
    </radialGradient>
    <filter id="softShadow" x="-20%" y="-20%" width="140%" height="140%">
      <feDropShadow dx="0" dy="18" stdDeviation="35" flood-color="#00101a" flood-opacity="0.35"/>
    </filter>
    <filter id="glow" x="-40%" y="-40%" width="180%" height="180%">
      <feGaussianBlur stdDeviation="18" result="b"/>
      <feBlend in="SourceGraphic" in2="b" mode="screen"/>
    </filter>
    <linearGradient id="hairGrad" x1="0" x2="1">
      <stop offset="0" stop-color="#151515"/>
      <stop offset="1" stop-color="#2b2b2b"/>
    </linearGradient>
  </defs>

  <!-- Background blob -->
  <g filter="url(#glow)">
    <ellipse cx="600" cy="600" rx="420" ry="480" fill="url(#g1)" opacity="0.18" />
  </g>

  <!-- 3D-like card shadow -->
  <ellipse cx="600" cy="1040" rx="360" ry="40" fill="#000" opacity="0.18"/>

  <!-- Head group: add slight tilt transform origin center -->
  <g id="head" transform="translate(0,0)">
    <!-- body / torso -->
    <path d="M300 930 C360 770, 840 770, 900 930 L900 1100 L300 1100 Z" fill="#0b1220" opacity="0.95" />

    <!-- face base -->
    <ellipse cx="600" cy="540" rx="210" ry="260" fill="url(#faceGrad)" filter="url(#softShadow)"/>

    <!-- hair -->
    <path d="M390 420 C350 320, 530 240, 600 240 C700 240, 820 320, 780 420 C760 460, 720 470, 680 480 C640 490, 560 495, 520 490 C480 485, 420 470, 390 420 Z" fill="url(#hairGrad)"/>

    <!-- ears -->
    <ellipse cx="390" cy="560" rx="28" ry="40" fill="#e6b890" opacity="0.95"/>
    <ellipse cx="810" cy="560" rx="28" ry="40" fill="#e6b890" opacity="0.95"/>

    <!-- eyes -->
    <g transform="translate(0,10)">
      <ellipse cx="520" cy="540" rx="30" ry="18" fill="#fff"/>
      <ellipse cx="680" cy="540" rx="30" ry="18" fill="#fff"/>
      <circle cx="525" cy="542" r="9" fill="#2a2a2a"/>
      <circle cx="685" cy="542" r="9" fill="#2a2a2a"/>
      <!-- eye highlights -->
      <circle cx="520" cy="536" r="3" fill="#fff" opacity="0.9"/>
      <circle cx="680" cy="536" r="3" fill="#fff" opacity="0.9"/>
    </g>

    <!-- nose -->
    <path d="M600 570 q-10 22 0 44" stroke="#c98c66" stroke-width="6" fill="none" stroke-linecap="round"/>

    <!-- mouth -->
    <path d="M560 630 q40 30 80 0" stroke="#b86f4b" stroke-width="6" fill="none" stroke-linecap="round"/>

    <!-- subtle cheek blush -->
    <ellipse cx="520" cy="600" rx="22" ry="12" fill="#ff9f8a" opacity="0.24"/>
    <ellipse cx="680" cy="600" rx="22" ry="12" fill="#ff9f8a" opacity="0.24"/>

    <!-- subtle glossy accents -->
    <path d="M460 460 q60 -40 220 0" stroke="#ffffff" stroke-opacity="0.06" stroke-width="26" fill="none" stroke-linecap="round"/>
  </g>

  <!-- decorative ring / frame -->
  <g transform="translate(0,0)">
    <circle cx="600" cy="600" r="460" fill="none" stroke="rgba(255,255,255,0.02)" stroke-width="6"/>
    <path d="M600 160 A440 440 0 0 1 950 600" stroke="rgba(255,255,255,0.03)" stroke-width="12" fill="none"/>
  </g>

  <!-- small floating geometric accents -->
  <g id="accents">
    <rect x="980" y="180" width="40" height="40" rx="10" transform="rotate(18 1000 200)" fill="#ffd166" opacity="0.9"/>
    <circle cx="200" cy="200" r="18" fill="#06b6d4" opacity="0.9"/>
    <rect x="140" y="860" width="26" height="60" rx="6" fill="#7c3aed" opacity="0.9"/>
  </g>

  <!-- tiny animation targets (we'll animate via CSS in the page) -->
</svg>
